<?xml version="1.0" encoding="UTF-8"?>
<!-- Generated by Pixelmator Pro 3.5.11 -->
<svg width="20" height="20" viewBox="0 0 20 20" xmlns="http://www.w3.org/2000/svg">
    <path id="Path" fill="#4d4d4d" stroke="none" d="M 10 19 C 14.970562 19 19 14.970562 19 10 C 19 5.029438 14.970562 1 10 1 C 5.029437 1 1 5.029438 1 10 C 1 14.970562 5.029437 19 10 19 Z M 8.59375 12.8125 L 9.4375 12.8125 L 9.4375 10.5625 L 8.59375 10.5625 C 8.126172 10.5625 7.75 10.186328 7.75 9.71875 C 7.75 9.251172 8.126172 8.875 8.59375 8.875 L 10.28125 8.875 C 10.748828 8.875 11.125 9.251172 11.125 9.71875 L 11.125 12.8125 L 11.40625 12.8125 C 11.873828 12.8125 12.25 13.188672 12.25 13.65625 C 12.25 14.123828 11.873828 14.5 11.40625 14.5 L 8.59375 14.5 C 8.126172 14.5 7.75 14.123828 7.75 13.65625 C 7.75 13.188672 8.126172 12.8125 8.59375 12.8125 Z M 10 5.5 C 10.621321 5.5 11.125 6.00368 11.125 6.625 C 11.125 7.24632 10.621321 7.75 10 7.75 C 9.378679 7.75 8.875 7.24632 8.875 6.625 C 8.875 6.00368 9.378679 5.5 10 5.5 Z"/>
</svg>
