<?xml version="1.0" encoding="UTF-8"?>
<!-- Generated by Pixelmator Pro 3.5.11 -->
<svg width="20" height="20" viewBox="0 0 20 20" xmlns="http://www.w3.org/2000/svg">
    <path id="Path" fill="#4d4d4d" stroke="none" d="M 10 1 C 14.970562 1 19 5.029438 19 10 C 19 14.970562 14.970562 19 10 19 C 5.029437 19 1 14.970562 1 10 C 1 5.029438 5.029437 1 10 1 Z M 9.15625 5.21875 L 9.15625 10 C 9.15625 10.28125 9.296875 10.544922 9.532422 10.703125 L 12.907422 12.953125 C 13.294141 13.213282 13.817969 13.107813 14.078125 12.717578 C 14.338281 12.327344 14.232812 11.807031 13.842578 11.546875 L 10.84375 9.55 L 10.84375 5.21875 C 10.84375 4.751172 10.467578 4.375 10 4.375 C 9.532422 4.375 9.15625 4.751172 9.15625 5.21875 Z"/>
</svg>
