<?xml version="1.0" encoding="UTF-8"?>
<!-- Generated by Pixelmator Pro 3.5.11 -->
<svg width="20" height="20" viewBox="0 0 20 20" xmlns="http://www.w3.org/2000/svg">
    <path id="Path" fill="#4d4d4d" stroke="none" d="M 1 4 C 1 2.896875 1.896875 2 3 2 L 8 2 L 8 6 C 8 6.553125 8.446876 7 9 7 L 13 7 L 13 8.20625 C 10.690625 8.859375 9 10.98125 9 13.5 C 9 15.346875 9.909375 16.978125 11.303125 17.978125 C 11.203125 17.99375 11.103125 18 11 18 L 3 18 C 1.896875 18 1 17.103125 1 16 L 1 4 Z M 13 6 L 9 6 L 9 2 L 13 6 Z M 14.5 9 C 16.985281 9 19 11.014719 19 13.5 C 19 15.985281 16.985281 18 14.5 18 C 12.014719 18 10 15.985281 10 13.5 C 10 11.014719 12.014719 9 14.5 9 Z M 14.5 16.5 C 14.914213 16.5 15.25 16.164213 15.25 15.75 C 15.25 15.335787 14.914213 15 14.5 15 C 14.085787 15 13.75 15.335787 13.75 15.75 C 13.75 16.164213 14.085787 16.5 14.5 16.5 Z M 12.5 12.05 L 12.5 12.25 C 12.5 12.525 12.725 12.75 13 12.75 C 13.275 12.75 13.5 12.525 13.5 12.25 L 13.5 12.05 C 13.5 11.884375 13.634375 11.75 13.8 11.75 L 15.065625 11.75 C 15.30625 11.75 15.5 11.94375 15.5 12.184375 C 15.5 12.346875 15.409375 12.49375 15.26875 12.56875 L 14.26875 13.09375 C 14.103125 13.18125 14 13.35 14 13.5375 L 14 14 C 14 14.275 14.225 14.5 14.5 14.5 C 14.775 14.5 15 14.275 15 14 L 15 13.840625 L 15.734375 13.45625 C 16.206251 13.209375 16.5 12.71875 16.5 12.1875 C 16.5 11.39375 15.85625 10.753125 15.065625 10.753125 L 13.8 10.753125 C 13.08125 10.753125 12.5 11.334375 12.5 12.053125 Z"/>
</svg>
