<?xml version="1.0" encoding="UTF-8"?>
<!-- Generated by Pixelmator Pro 3.5.11 -->
<svg width="20" height="20" viewBox="0 0 20 20" xmlns="http://www.w3.org/2000/svg">
    <path id="Path" fill="#4d4d4d" stroke="none" d="M 4.523223 2.59375 C 4.523223 1.713547 5.194823 1 6.023285 1 C 6.851747 1 7.523347 1.713547 7.523347 2.59375 C 7.523347 3.473953 6.851747 4.1875 6.023285 4.1875 C 5.194823 4.1875 4.523223 3.473953 4.523223 2.59375 Z M 5.773274 12.6875 L 5.773274 16.9375 C 5.773274 17.525196 5.326381 18 4.773233 18 C 4.220086 18 3.773192 17.525196 3.773192 16.9375 L 3.773192 9.529882 L 2.879405 11.110352 C 2.595018 11.611719 1.979368 11.774414 1.507473 11.472265 C 1.035579 11.170116 0.882448 10.516016 1.166834 10.014648 L 2.988785 6.793945 C 3.532557 5.834375 4.507597 5.246679 5.560766 5.246679 L 6.488929 5.246679 C 7.542098 5.246679 8.517138 5.834375 9.060911 6.793945 L 10.464094 9.27422 C 9.960948 9.858593 9.570307 10.55254 9.320296 11.316212 C 9.260919 11.256445 9.210917 11.186718 9.167165 11.107031 L 8.273378 9.529882 L 8.273378 16.9375 C 8.273378 17.525196 7.826484 18 7.273336 18 C 6.720189 18 6.273295 17.525196 6.273295 16.9375 L 6.273295 12.6875 L 5.773274 12.6875 Z M 14.523636 8.4375 C 17.00902 8.4375 19.023823 10.578139 19.023823 13.21875 C 19.023823 15.859362 17.00902 18 14.523636 18 C 12.038253 18 10.02345 15.859362 10.02345 13.21875 C 10.02345 10.578139 12.038253 8.4375 14.523636 8.4375 Z M 14.523636 16.40625 C 14.937866 16.40625 15.273667 16.049477 15.273667 15.609375 C 15.273667 15.169273 14.937866 14.8125 14.523636 14.8125 C 14.109406 14.8125 13.773605 15.169273 13.773605 15.609375 C 13.773605 16.049477 14.109406 16.40625 14.523636 16.40625 Z M 12.523554 11.678125 L 12.523554 11.890625 C 12.523554 12.182812 12.748563 12.421875 13.023574 12.421875 C 13.298585 12.421875 13.523595 12.182812 13.523595 11.890625 L 13.523595 11.678125 C 13.523595 11.502148 13.657975 11.359375 13.823607 11.359375 L 15.089285 11.359375 C 15.329919 11.359375 15.523678 11.565235 15.523678 11.820898 C 15.523678 11.993555 15.433049 12.149609 15.292418 12.229298 L 14.292377 12.787109 C 14.126744 12.880077 14.023616 13.059376 14.023616 13.258595 L 14.023616 13.75 C 14.023616 14.042187 14.248626 14.28125 14.523636 14.28125 C 14.798647 14.28125 15.023657 14.042187 15.023657 13.75 L 15.023657 13.580664 L 15.758062 13.172266 C 16.229958 12.909962 16.52372 12.388672 16.52372 11.824219 C 16.52372 10.98086 15.879942 10.300196 15.089285 10.300196 L 13.823607 10.300196 C 13.104828 10.300196 12.523554 10.917774 12.523554 11.681446 Z"/>
</svg>
