<?xml version="1.0" encoding="UTF-8"?>
<!-- Generated by Pixelmator Pro 3.5.11 -->
<svg width="20" height="20" viewBox="0 0 20 20" xmlns="http://www.w3.org/2000/svg">
    <path id="Path" fill="#4d4d4d" stroke="none" d="M 4.523223 3.59375 C 4.523223 2.713547 5.194823 2 6.023285 2 C 6.851747 2 7.523347 2.713547 7.523347 3.59375 C 7.523347 4.473954 6.851747 5.1875 6.023285 5.1875 C 5.194823 5.1875 4.523223 4.473954 4.523223 3.59375 Z M 5.773274 13.6875 L 5.773274 17.9375 C 5.773274 18.525196 5.326381 19 4.773233 19 C 4.220086 19 3.773192 18.525196 3.773192 17.9375 L 3.773192 10.529882 L 2.879405 12.110352 C 2.595018 12.611719 1.979368 12.774414 1.507473 12.472265 C 1.035579 12.170116 0.882448 11.516016 1.166834 11.014648 L 2.988785 7.793945 C 3.532557 6.834375 4.507597 6.246679 5.560766 6.246679 L 6.488929 6.246679 C 7.542098 6.246679 8.517138 6.834375 9.060911 7.793945 L 10.464094 10.27422 C 9.960948 10.858593 9.570307 11.55254 9.320296 12.316212 C 9.260919 12.256445 9.210917 12.186718 9.167165 12.107031 L 8.273378 10.529882 L 8.273378 17.9375 C 8.273378 18.525196 7.826484 19 7.273336 19 C 6.720189 19 6.273295 18.525196 6.273295 17.9375 L 6.273295 13.6875 L 5.773274 13.6875 Z M 10.02345 14.21875 C 10.02345 11.578139 12.038253 9.4375 14.523636 9.4375 C 17.00902 9.4375 19.023823 11.578139 19.023823 14.21875 C 19.023823 16.859362 17.00902 19 14.523636 19 C 12.038253 19 10.02345 16.859362 10.02345 14.21875 Z M 16.626848 12.781055 C 16.43309 12.575195 16.114326 12.575195 15.920569 12.781055 L 14.023616 14.796484 L 13.126703 13.843555 C 12.932945 13.637695 12.614182 13.637695 12.420424 13.843555 C 12.226666 14.049414 12.226666 14.388086 12.420424 14.593945 L 13.670476 15.92207 C 13.864234 16.12793 14.182998 16.12793 14.376755 15.92207 L 16.626848 13.531445 C 16.820606 13.325586 16.820606 12.986914 16.626848 12.781055 Z"/>
</svg>
