<?xml version="1.0" encoding="UTF-8"?>
<!-- Generated by Pixelmator Pro 3.5.11 -->
<svg width="20" height="20" viewBox="0 0 20 20" xmlns="http://www.w3.org/2000/svg">
    <path id="Path" fill="#4d4d4d" stroke="none" d="M 10.036257 1 C 10.535512 1 10.996091 1.30134 11.249234 1.795536 L 18.843527 16.581249 C 19.100185 17.079464 19.100185 17.694197 18.850559 18.19241 C 18.600933 18.690624 18.13332 19 17.63055 19 L 2.441963 19 C 1.939193 19 1.471581 18.690624 1.221954 18.19241 C 0.972327 17.694197 0.975842 17.075447 1.228986 16.581249 L 8.823279 1.795536 C 9.076422 1.30134 9.537003 1 10.036257 1 Z M 10.036257 6.142858 C 9.568645 6.142858 9.192446 6.572768 9.192446 7.107142 L 9.192446 11.607142 C 9.192446 12.141518 9.568645 12.571428 10.036257 12.571428 C 10.503868 12.571428 10.880067 12.141518 10.880067 11.607142 L 10.880067 7.107142 C 10.880067 6.572768 10.503868 6.142858 10.036257 6.142858 Z M 11.161337 15.142857 C 11.161337 14.432775 10.657622 13.857143 10.036257 13.857143 C 9.414892 13.857143 8.911176 14.432775 8.911176 15.142857 C 8.911176 15.852938 9.414892 16.428572 10.036257 16.428572 C 10.657622 16.428572 11.161337 15.852938 11.161337 15.142857 Z"/>
</svg>
