<?xml version="1.0" encoding="UTF-8"?>
<!-- Generated by Pixelmator Pro 3.5.11 -->
<svg width="20" height="20" viewBox="0 0 20 20" xmlns="http://www.w3.org/2000/svg">
    <path id="Path" fill="#4d4d4d" stroke="none" d="M 5.050633 7 C 6.293468 7 7.300984 5.880712 7.300984 4.5 C 7.300984 3.119289 6.293468 2 5.050633 2 C 3.807798 2 2.800281 3.119289 2.800281 4.5 C 2.800281 5.880712 3.807798 7 5.050633 7 Z M 15.402249 7 C 16.645084 7 17.652601 5.880712 17.652601 4.5 C 17.652601 3.119289 16.645084 2 15.402249 2 C 14.159415 2 13.151898 3.119289 13.151898 4.5 C 13.151898 5.880712 14.159415 7 15.402249 7 Z M 1 11.334375 C 1 11.7 1.270042 12 1.599156 12 L 7.601969 12 C 7.607594 12 7.613221 12 7.621659 12 C 6.873417 11.265625 6.403657 10.19375 6.403657 9 C 6.403657 8.7625 6.423347 8.53125 6.457102 8.303125 C 6.074543 8.10625 5.649789 8 5.202531 8 L 4.001406 8 C 2.344585 8 1 9.49375 1 11.334375 Z M 10.001406 12 C 10.676512 12 11.292545 11.725 11.76512 11.271875 C 11.835443 11.15625 11.911392 11.04375 11.990154 10.9375 C 12.066104 10.834375 12.150492 10.746875 12.24332 10.678125 C 12.533051 10.196875 12.701828 9.621875 12.701828 9 C 12.701828 7.34375 11.492264 6 10.001406 6 C 8.510549 6 7.300984 7.34375 7.300984 9 C 7.300984 10.65625 8.510549 12 10.001406 12 Z M 11.841068 13.88125 C 11.551336 13.696875 11.331926 13.375 11.255978 13 L 8.35021 13 C 6.279887 13 4.600563 14.865625 4.600563 17.165625 C 4.600563 17.625 4.935302 18 5.351617 18 L 13.804501 18 C 13.745429 17.8375 13.714486 17.659374 13.714486 17.487499 L 13.714486 17.393749 C 13.677918 17.371876 13.638536 17.346874 13.601969 17.321875 L 13.528832 17.36875 C 13.056258 17.671875 12.389591 17.61875 11.990154 17.065624 C 11.863572 16.890625 11.748241 16.706249 11.64135 16.515625 L 11.638537 16.509375 L 11.635724 16.503124 L 11.568213 16.375 L 11.565401 16.36875 L 11.562588 16.362499 C 11.466948 16.168751 11.38256 15.96875 11.309422 15.759375 C 11.078762 15.096875 11.371308 14.428125 11.843882 14.125 L 11.919831 14.078125 C 11.919831 14.053125 11.919831 14.03125 11.919831 14.00625 C 11.919831 13.98125 11.919831 13.959375 11.919831 13.934375 L 11.843882 13.8875 Z M 16.001406 8 L 14.803094 8 C 14.355836 8 13.931083 8.109375 13.548523 8.303125 C 13.585091 8.528125 13.601969 8.7625 13.601969 9 C 13.601969 9.54375 13.503515 10.059375 13.329113 10.53125 C 13.399437 10.559375 13.466948 10.59375 13.528832 10.634375 L 13.601969 10.68125 C 13.638536 10.65625 13.675105 10.63125 13.714486 10.609375 L 13.714486 10.515625 C 13.714486 9.909375 14.088607 9.29375 14.721519 9.184375 C 14.943741 9.146875 15.171589 9.125 15.402249 9.125 C 15.632911 9.125 15.860759 9.14375 16.082981 9.184375 C 16.715893 9.29375 17.090014 9.909375 17.090014 10.515625 L 17.090014 10.609375 C 17.126581 10.63125 17.165962 10.65625 17.202532 10.68125 L 17.275667 10.634375 C 17.748241 10.33125 18.414907 10.384375 18.814344 10.9375 C 18.879042 11.025 18.940928 11.11875 19 11.209375 C 18.940928 9.425 17.62166 8 16.001406 8 Z M 18.569618 13.121875 C 18.746836 13.009375 18.836847 12.775 18.7609 12.559375 C 18.701828 12.3875 18.631504 12.221875 18.552742 12.0625 L 18.488045 11.9375 C 18.400843 11.778125 18.305204 11.628125 18.201124 11.484375 C 18.07173 11.30625 17.843882 11.275 17.666666 11.390625 L 17.585091 11.44375 C 17.326302 11.609375 17.011251 11.56875 16.75246 11.403125 C 16.49367 11.2375 16.299578 10.95 16.299578 10.61875 L 16.299578 10.5125 C 16.299578 10.284375 16.161743 10.08125 15.959211 10.046875 C 15.77637 10.015625 15.590717 10 15.399437 10 C 15.208158 10 15.022503 10.015625 14.839662 10.046875 C 14.63713 10.08125 14.499296 10.284375 14.499296 10.5125 L 14.499296 10.61875 C 14.499296 10.95 14.305203 11.2375 14.046412 11.403125 C 13.787622 11.56875 13.472573 11.609375 13.213783 11.44375 L 13.132207 11.390625 C 12.954992 11.278125 12.727144 11.309375 12.597749 11.484375 C 12.49367 11.628125 12.398031 11.78125 12.310829 11.940625 L 12.246132 12.0625 C 12.16737 12.221875 12.097046 12.3875 12.037974 12.559375 C 11.964837 12.771875 12.052039 13.00625 12.229255 13.11875 L 12.310829 13.171875 C 12.569619 13.3375 12.696201 13.665625 12.696201 13.996875 C 12.696201 14.328125 12.569619 14.65625 12.310829 14.821875 L 12.226441 14.875 C 12.049226 14.9875 11.959212 15.221875 12.035161 15.434375 C 12.094233 15.60625 12.164557 15.76875 12.24332 15.928125 L 12.310829 16.05625 C 12.395218 16.215626 12.490857 16.365625 12.594936 16.509375 C 12.724331 16.6875 12.952179 16.71875 13.129395 16.603125 L 13.21097 16.549999 C 13.46976 16.384375 13.78481 16.424999 14.0436 16.590626 C 14.30239 16.75625 14.496483 17.043751 14.496483 17.375 L 14.496483 17.481251 C 14.496483 17.709375 14.634317 17.9125 14.836849 17.946875 C 15.01969 17.978125 15.205344 17.99375 15.396624 17.99375 C 15.587903 17.99375 15.773559 17.978125 15.956399 17.946875 C 16.158932 17.9125 16.296764 17.709375 16.296764 17.481251 L 16.296764 17.375 C 16.296764 17.043751 16.490858 16.75625 16.749649 16.590626 C 17.008438 16.424999 17.323486 16.384375 17.582277 16.549999 L 17.663855 16.603125 C 17.841068 16.715626 18.068916 16.684376 18.198313 16.509375 C 18.302389 16.365625 18.398029 16.215626 18.482418 16.05625 L 18.549931 15.925 C 18.628691 15.765625 18.699015 15.603125 18.758085 15.43125 C 18.831224 15.21875 18.744022 14.984375 18.566807 14.871875 L 18.482418 14.81875 C 18.223627 14.653125 18.097046 14.325 18.097046 13.99375 C 18.097046 13.6625 18.223627 13.334375 18.482418 13.16875 L 18.566807 13.115625 Z M 14.277074 14 C 14.277074 13.309644 14.780832 12.75 15.402249 12.75 C 16.023666 12.75 16.527426 13.309644 16.527426 14 C 16.527426 14.690356 16.023666 15.25 15.402249 15.25 C 14.780832 15.25 14.277074 14.690356 14.277074 14 Z"/>
</svg>
